<svg width="513" height="512" viewBox="0 0 513 512" fill="none" xmlns="http://www.w3.org/2000/svg">
<path d="M27.82 0.171859C22.3186 0.171535 16.9407 1.80247 12.3662 4.85846C7.79169 7.91445 4.22608 12.2582 2.12018 17.3406C0.0142796 22.4229 -0.537341 28.0156 0.535101 33.4114C1.60754 38.8073 4.25587 43.7639 8.14522 47.6547L102.57 142.077L8.14522 236.5C2.92986 241.717 0 248.791 0 256.168C0 263.544 2.92986 270.618 8.14522 275.835L236.321 504.009C239.55 507.239 243.525 509.623 247.894 510.953C247.928 510.953 247.963 510.953 247.997 510.953C249.643 511.451 251.333 511.796 253.043 511.983C253.043 511.983 253.043 511.984 253.043 511.985C253.183 511.986 253.323 511.986 253.463 511.985C253.498 511.986 253.532 511.987 253.566 511.988C253.709 511.99 253.853 511.99 253.996 511.988C254.124 511.989 254.251 511.989 254.378 511.988C254.561 511.99 254.744 511.99 254.927 511.988C254.961 511.99 254.995 511.991 255.029 511.991C255.17 511.992 255.31 511.992 255.451 511.991C255.685 511.997 255.92 512 256.155 512H484.328C489.829 512 495.206 510.368 499.78 507.312C504.354 504.256 507.919 499.913 510.025 494.831C512.13 489.748 512.682 484.156 511.61 478.761C510.537 473.365 507.889 468.409 504 464.518L409.57 370.097L503.992 275.676C509.208 270.459 512.139 263.384 512.139 256.006C512.139 248.629 509.208 241.554 503.992 236.337L275.824 8.16291C274.15 6.48971 272.27 5.03694 270.229 3.83979C270.105 3.76708 269.981 3.69531 269.857 3.62451C269.164 3.23295 268.454 2.87133 267.73 2.54063C267.6 2.48112 267.469 2.42262 267.338 2.36513C267.304 2.36507 267.27 2.36507 267.236 2.36513C267.202 2.36507 267.167 2.36507 267.133 2.36513C267.003 2.30861 266.872 2.2531 266.741 2.19859C266.611 2.14207 266.48 2.08656 266.349 2.03204C266.044 1.91262 265.738 1.79857 265.429 1.68997C265.296 1.63983 265.162 1.59073 265.028 1.54264C264.572 1.38722 264.112 1.24367 263.648 1.11216C263.508 1.07262 263.367 1.03419 263.227 0.996856C263.192 0.996793 263.158 0.996793 263.124 0.996856C262.984 0.961598 262.844 0.927397 262.704 0.894317C262.67 0.891693 262.635 0.889161 262.601 0.886663C262.462 0.851405 262.321 0.817237 262.181 0.784157C262.147 0.781532 262.113 0.778969 262.079 0.77647C262.044 0.776407 262.01 0.776407 261.976 0.77647C261.852 0.741443 261.729 0.707275 261.605 0.673964C261.464 0.6387 261.324 0.604531 261.183 0.571459C261.149 0.569119 261.115 0.566832 261.08 0.564618C260.963 0.529675 260.846 0.495507 260.728 0.462113C260.694 0.46205 260.66 0.46205 260.626 0.462113C260.486 0.426855 260.346 0.392686 260.205 0.359607C260.171 0.35684 260.137 0.354137 260.103 0.351496C259.963 0.316239 259.823 0.28207 259.683 0.248991C259.648 0.247604 259.614 0.246277 259.58 0.245017C259.281 0.20168 258.98 0.163213 258.679 0.129677C258.645 0.128332 258.611 0.127053 258.577 0.125834C258.122 0.0761587 257.666 0.037717 257.21 0.0105271C257.176 0.00948217 257.141 0.00851454 257.107 0.00759558C256.964 0.00648523 256.82 0.00648523 256.677 0.00759558C256.643 0.00689221 256.608 0.00625123 256.574 0.0056738C256.2 -0.00189127 255.825 -0.00189127 255.451 0.0056738L27.82 0.171859ZM94.9754 55.8066H188.842L141.907 102.74L94.9754 55.8066ZM255.992 67.3274L355.659 166.993L280.906 241.745L231.086 191.925L116.998 306.013L67.1507 256.164L161.259 162.055C161.364 161.951 161.468 161.847 161.571 161.741L255.992 67.3274ZM394.992 206.327L444.838 256.171L311.486 389.523L255.994 445.009L156.33 345.345L231.086 270.593L280.906 320.412L394.992 206.327ZM370.083 409.598L417.018 456.532H323.148L370.083 409.598Z" fill="#00AB6B"/>
</svg>
